<svg xmlns="http://www.w3.org/2000/svg" version="1.1" xmlns:xlink="http://www.w3.org/1999/xlink" xmlns:svgjs="http://svgjs.dev/svgjs" width="2000" height="429" viewBox="0 0 2000 429"><g transform="matrix(1,0,0,1,-1.2121212121212466,0.9727959885818507)"><svg viewBox="0 0 396 85" data-background-color="#ffffff" preserveAspectRatio="xMidYMid meet" height="429" width="2000" xmlns="http://www.w3.org/2000/svg" xmlns:xlink="http://www.w3.org/1999/xlink"><g id="tight-bounds" transform="matrix(1,0,0,1,0.2400000000000091,-0.19274512594279258)"><svg viewBox="0 0 395.52 85.38549025188557" height="85.38549025188557" width="395.52"><g><svg viewBox="0 0 395.52000000000004 85.38549025188559" height="85.38549025188557" width="395.52"><g><svg viewBox="0 0 395.52000000000004 85.38549025188559" height="85.38549025188559" width="395.52000000000004"><g id="textblocktransform"><svg viewBox="0 0 395.52000000000004 85.38549025188559" height="85.38549025188559" width="395.52000000000004" id="textblock"><g><svg viewBox="0 0 395.52000000000004 85.38549025188559" height="85.38549025188559" width="395.52000000000004"><g transform="matrix(1,0,0,1,0,0)"><svg width="395.52000000000004" viewBox="3.25 -36.55 172.83 37.04" height="85.38549025188559" data-palette-color="#01ff70"><g class="wordmark-text-0" data-fill-palette-color="primary" id="text-0"><path d="M27.25-7.01L27.25 0 3.25 0 3.25-35.01 27.25-35.01 27.25-28 10.25-28 10.25-21 21.75-21 21.75-13.99 10.25-13.99 10.25-7.01 27.25-7.01ZM38.16-36.55L38.16 0 31.44 0 31.44-36.55 38.16-36.55ZM66.13-21.46L53.63-6.4Q54.02-6.27 54.41-6.24 54.8-6.2 55.2-6.2L55.2-6.2Q56.17-6.2 57.08-6.47 57.98-6.74 58.77-7.24 59.57-7.74 60.19-8.46 60.81-9.18 61.2-10.06L61.2-10.06 66.08-5.15Q65.16-3.83 63.95-2.78 62.74-1.73 61.34-1 59.93-0.27 58.38 0.11 56.83 0.49 55.2 0.49L55.2 0.49Q52.44 0.49 50.01-0.54 47.58-1.56 45.76-3.39 43.94-5.22 42.89-7.75 41.84-10.28 41.84-13.31L41.84-13.31Q41.84-16.41 42.89-18.97 43.94-21.53 45.76-23.34 47.58-25.15 50.01-26.15 52.44-27.15 55.2-27.15L55.2-27.15Q56.83-27.15 58.39-26.76 59.96-26.37 61.36-25.63 62.76-24.9 63.98-23.84 65.2-22.78 66.13-21.46L66.13-21.46ZM49.29-9.84L57.05-20.14Q56.59-20.31 56.14-20.36 55.68-20.41 55.2-20.41L55.2-20.41Q53.83-20.41 52.62-19.91 51.41-19.41 50.52-18.48 49.63-17.55 49.12-16.25 48.6-14.94 48.6-13.31L48.6-13.31Q48.6-12.94 48.64-12.48 48.68-12.01 48.76-11.54 48.85-11.06 48.97-10.62 49.09-10.18 49.29-9.84L49.29-9.84ZM92.38-21.46L79.88-6.4Q80.27-6.27 80.66-6.24 81.05-6.2 81.44-6.2L81.44-6.2Q82.41-6.2 83.32-6.47 84.22-6.74 85.01-7.24 85.81-7.74 86.43-8.46 87.05-9.18 87.44-10.06L87.44-10.06 92.33-5.15Q91.4-3.83 90.19-2.78 88.98-1.73 87.58-1 86.17-0.27 84.62 0.11 83.07 0.49 81.44 0.49L81.44 0.49Q78.68 0.49 76.25-0.54 73.82-1.56 72-3.39 70.18-5.22 69.13-7.75 68.08-10.28 68.08-13.31L68.08-13.31Q68.08-16.41 69.13-18.97 70.18-21.53 72-23.34 73.82-25.15 76.25-26.15 78.68-27.15 81.44-27.15L81.44-27.15Q83.07-27.15 84.64-26.76 86.2-26.37 87.6-25.63 89.01-24.9 90.23-23.84 91.45-22.78 92.38-21.46L92.38-21.46ZM75.53-9.84L83.29-20.14Q82.83-20.31 82.38-20.36 81.93-20.41 81.44-20.41L81.44-20.41Q80.07-20.41 78.86-19.91 77.65-19.41 76.76-18.48 75.87-17.55 75.36-16.25 74.85-14.94 74.85-13.31L74.85-13.31Q74.85-12.94 74.88-12.48 74.92-12.01 75-11.54 75.09-11.06 75.21-10.62 75.33-10.18 75.53-9.84L75.53-9.84ZM109.83 0L103.14 0 93.18-26.15 100.77-26.15 106.48-9.84 112.17-26.15 119.79-26.15 109.83 0ZM147.64-26.1L147.64 0 146.03 0 143.44-3.59Q142.49-2.73 141.43-1.99 140.37-1.25 139.2-0.7 138.02-0.15 136.79 0.17 135.56 0.49 134.29 0.49L134.29 0.49Q131.53 0.49 129.1-0.44 126.67-1.37 124.85-3.14 123.03-4.91 121.98-7.47 120.93-10.03 120.93-13.31L120.93-13.31Q120.93-16.36 121.98-18.91 123.03-21.46 124.85-23.29 126.67-25.12 129.1-26.14 131.53-27.15 134.29-27.15L134.29-27.15Q135.56-27.15 136.8-26.83 138.05-26.51 139.22-25.95 140.39-25.39 141.45-24.63 142.52-23.88 143.44-23L143.44-23 146.03-26.1 147.64-26.1ZM140.93-13.31L140.93-13.31Q140.93-14.67 140.4-15.95 139.88-17.24 138.98-18.23 138.07-19.21 136.86-19.81 135.66-20.41 134.29-20.41L134.29-20.41Q132.92-20.41 131.71-19.95 130.51-19.48 129.61-18.58 128.72-17.68 128.21-16.35 127.7-15.01 127.7-13.31L127.7-13.31Q127.7-11.6 128.21-10.27 128.72-8.94 129.61-8.03 130.51-7.13 131.71-6.67 132.92-6.2 134.29-6.2L134.29-6.2Q135.66-6.2 136.86-6.8 138.07-7.4 138.98-8.39 139.88-9.38 140.4-10.66 140.93-11.94 140.93-13.31ZM159.38-14.94L159.38 0 152.72 0 152.72-26.15 154.33-26.15 156.53-23.61Q158.14-25.07 160.18-25.87 162.22-26.66 164.44-26.66L164.44-26.66Q166.83-26.66 168.95-25.74 171.08-24.83 172.67-23.23 174.25-21.63 175.17-19.49 176.08-17.36 176.08-14.94L176.08-14.94 176.08 0 169.42 0 169.42-14.94Q169.42-15.97 169.03-16.88 168.64-17.8 167.95-18.48 167.27-19.17 166.37-19.56 165.46-19.95 164.44-19.95L164.44-19.95Q163.39-19.95 162.46-19.56 161.53-19.17 160.85-18.48 160.17-17.8 159.78-16.88 159.38-15.97 159.38-14.94L159.38-14.94Z" fill="#ffffff" data-fill-palette-color="primary"></path></g></svg></g></svg></g></svg></g></svg></g></svg></g><defs></defs></svg><rect width="395.52" height="85.38549025188557" fill="none" stroke="none" visibility="hidden"></rect></g></svg></g></svg>