<svg xmlns="http://www.w3.org/2000/svg" version="1.1" xmlns:xlink="http://www.w3.org/1999/xlink" xmlns:svgjs="http://svgjs.dev/svgjs" width="2000" height="227" viewBox="0 0 2000 227"><g transform="matrix(1,0,0,1,-1.2121212121212466,-1.0846184538652892)"><svg viewBox="0 0 396 45" data-background-color="#ffffff" preserveAspectRatio="xMidYMid meet" height="227" width="2000" xmlns="http://www.w3.org/2000/svg" xmlns:xlink="http://www.w3.org/1999/xlink"><g id="tight-bounds" transform="matrix(1,0,0,1,0.2400000000000091,0.21501246882792202)"><svg viewBox="0 0 395.52 44.56997506234413" height="44.56997506234413" width="395.52"><g><svg viewBox="0 0 395.52000000000004 44.569975062344135" height="44.56997506234413" width="395.52"><g><svg viewBox="0 0 395.52000000000004 44.569975062344135" height="44.569975062344135" width="395.52000000000004"><g id="textblocktransform"><svg viewBox="0 0 395.52000000000004 44.569975062344135" height="44.569975062344135" width="395.52000000000004" id="textblock"><g><svg viewBox="0 0 395.52000000000004 44.569975062344135" height="44.569975062344135" width="395.52000000000004"><g transform="matrix(1,0,0,1,0,0)"><svg width="395.52000000000004" viewBox="2.3 -35.75 320.78 36.15" height="44.569975062344135" data-palette-color="#fbfffd"><path d="M2.3-35.4L13.35-35.4 13.35-15.45Q13.35-13 14.43-11.58 15.5-10.15 17.9-10.15L17.9-10.15Q20.3-10.15 21.45-11.58 22.6-13 22.6-15.45L22.6-15.45 22.6-35.4 33.65-35.4 33.65-15.45Q33.65-10.4 31.55-6.83 29.45-3.25 25.8-1.45 22.15 0.35 17.65 0.35L17.65 0.35Q13.15 0.35 9.68-1.45 6.2-3.25 4.25-6.8 2.3-10.35 2.3-15.45L2.3-15.45 2.3-35.4ZM72.4-35.4L72.4 0 61.3 0 49.55-17.8 49.55 0 38.45 0 38.45-35.4 49.55-35.4 61.3-17.3 61.3-35.4 72.4-35.4ZM106.35-23.25Q106.35-19.9 104.8-17.18 103.25-14.45 100.22-12.85 97.2-11.25 92.9-11.25L92.9-11.25 88.5-11.25 88.5 0 77.4 0 77.4-35.4 92.9-35.4Q99.4-35.4 102.87-32.1 106.35-28.8 106.35-23.25L106.35-23.25ZM91.65-20Q95.1-20 95.1-23.25L95.1-23.25Q95.1-26.5 91.65-26.5L91.65-26.5 88.5-26.5 88.5-20 91.65-20ZM120.94-35.4L120.94-8.4 131.64-8.4 131.64 0 109.84 0 109.84-35.4 120.94-35.4ZM134.94-35.4L145.99-35.4 145.99-15.45Q145.99-13 147.07-11.58 148.14-10.15 150.54-10.15L150.54-10.15Q152.94-10.15 154.09-11.58 155.24-13 155.24-15.45L155.24-15.45 155.24-35.4 166.29-35.4 166.29-15.45Q166.29-10.4 164.19-6.83 162.09-3.25 158.44-1.45 154.79 0.35 150.29 0.35L150.29 0.35Q145.79 0.35 142.32-1.45 138.84-3.25 136.89-6.8 134.94-10.35 134.94-15.45L134.94-15.45 134.94-35.4ZM204.49-23.3L192.79-23.3Q192.14-24.35 190.94-24.93 189.74-25.5 188.04-25.5L188.04-25.5Q184.84-25.5 183.09-23.43 181.34-21.35 181.34-17.75L181.34-17.75Q181.34-13.6 183.29-11.55 185.24-9.5 189.29-9.5L189.29-9.5Q193.14-9.5 195.49-12.6L195.49-12.6 186.64-12.6 186.64-20.45 204.69-20.45 204.69-9.35Q202.39-5.4 198.34-2.58 194.29 0.25 188.09 0.25L188.09 0.25Q182.59 0.25 178.51-2.02 174.44-4.3 172.26-8.4 170.09-12.5 170.09-17.75L170.09-17.75Q170.09-23 172.26-27.1 174.44-31.2 178.49-33.48 182.54-35.75 187.99-35.75L187.99-35.75Q194.94-35.75 199.31-32.4 203.69-29.05 204.49-23.3L204.49-23.3ZM242.09-23.3L230.39-23.3Q229.74-24.35 228.54-24.93 227.34-25.5 225.64-25.5L225.64-25.5Q222.44-25.5 220.69-23.43 218.94-21.35 218.94-17.75L218.94-17.75Q218.94-13.6 220.89-11.55 222.84-9.5 226.89-9.5L226.89-9.5Q230.74-9.5 233.09-12.6L233.09-12.6 224.24-12.6 224.24-20.45 242.29-20.45 242.29-9.35Q239.99-5.4 235.94-2.58 231.89 0.25 225.69 0.25L225.69 0.25Q220.19 0.25 216.11-2.02 212.04-4.3 209.86-8.4 207.69-12.5 207.69-17.75L207.69-17.75Q207.69-23 209.86-27.1 212.04-31.2 216.09-33.48 220.14-35.75 225.59-35.75L225.59-35.75Q232.54-35.75 236.91-32.4 241.29-29.05 242.09-23.3L242.09-23.3ZM269.88-26.55L257.38-26.55 257.38-22.2 268.38-22.2 268.38-13.85 257.38-13.85 257.38-8.85 269.88-8.85 269.88 0 246.28 0 246.28-35.4 269.88-35.4 269.88-26.55ZM288.83-35.4Q294.38-35.4 298.56-33.15 302.73-30.9 304.98-26.9 307.23-22.9 307.23-17.8L307.23-17.8Q307.23-12.75 304.98-8.7 302.73-4.65 298.56-2.33 294.38 0 288.83 0L288.83 0 274.08 0 274.08-35.4 288.83-35.4ZM287.83-9.9Q291.58-9.9 293.78-11.95 295.98-14 295.98-17.8L295.98-17.8Q295.98-21.6 293.78-23.65 291.58-25.7 287.83-25.7L287.83-25.7 285.18-25.7 285.18-9.9 287.83-9.9ZM316.73 0.4Q313.83 0.4 312.08-1.15 310.33-2.7 310.33-5.05L310.33-5.05Q310.33-7.45 312.08-9.03 313.83-10.6 316.73-10.6L316.73-10.6Q319.58-10.6 321.33-9.03 323.08-7.45 323.08-5.05L323.08-5.05Q323.08-2.7 321.33-1.15 319.58 0.4 316.73 0.4L316.73 0.4Z" opacity="1" transform="matrix(1,0,0,1,0,0)" fill="#fbfffd" class="wordmark-text-0" data-fill-palette-color="primary" id="text-0"></path></svg></g></svg></g></svg></g></svg></g><g></g></svg></g><defs></defs></svg><rect width="395.52" height="44.56997506234413" fill="none" stroke="none" visibility="hidden"></rect></g></svg></g></svg>