<svg xmlns="http://www.w3.org/2000/svg" version="1.1" xmlns:xlink="http://www.w3.org/1999/xlink" xmlns:svgjs="http://svgjs.dev/svgjs" width="128" height="128" viewBox="0 0 128 128"><g transform="matrix(0.5508021390374331,0,0,0.5508021390374331,28.71839876997327,12.333870967741937)"><svg viewBox="0 0 106 155" data-background-color="#ffffff" preserveAspectRatio="xMidYMid meet" height="187" width="128" xmlns="http://www.w3.org/2000/svg" xmlns:xlink="http://www.w3.org/1999/xlink"><g id="tight-bounds" transform="matrix(1,0,0,1,0.045502092050199394,0.25)"><svg viewBox="0 0 105.90899581589959 154.5" height="154.5" width="105.90899581589959"><g><svg viewBox="0 0 105.90899581589959 154.5" height="154.5" width="105.90899581589959"><g><svg viewBox="0 0 105.90899581589959 154.5" height="154.5" width="105.90899581589959"><g id="textblocktransform"><svg viewBox="0 0 105.90899581589959 154.5" height="154.5" width="105.90899581589959" id="textblock"><g><svg viewBox="0 0 105.90899581589959 154.5" height="154.5" width="105.90899581589959"><g transform="matrix(1,0,0,1,0,0)"><svg width="105.90899581589959" viewBox="3.25 -35.01 24 35.01" height="154.5" data-palette-color="#01ff70"><g class="wordmark-text-0" data-fill-palette-color="primary" id="text-0"><path d="M27.25-7.01L27.25 0 3.25 0 3.25-35.01 27.25-35.01 27.25-28 10.25-28 10.25-21 21.75-21 21.75-13.99 10.25-13.99 10.25-7.01 27.25-7.01Z" fill="#01ff70" data-fill-palette-color="primary"></path></g></svg></g></svg></g></svg></g></svg></g></svg></g><defs></defs></svg><rect width="105.90899581589959" height="154.5" fill="none" stroke="none" visibility="hidden"></rect></g></svg></g></svg>